# xmcd
#
# Track frame offsets: 
#        150
#        12362
#        23975
#        31742
#        46360
#        56668
#        68284
#        81711
#        93024
#        102861
#
# Disc length: 1529 seconds
#
# Revision: 0
# Processed by: cddbd v1.5.2PL0 Copyright (c) Steve Scherf et al.
# Submitted via: ExactAudioCopy v0.99pb4
#
DISCID=7205f70a
DTITLE=Various Artist - #1 Country Hits Of The 1960s
DYEAR=2008
DGENRE=Country
TTITLE0=Workin' Man Blues
TTITLE1=She Thinks I Still Care
TTITLE2=Dang Me
TTITLE3=Harper Valley PTA
TTITLE4=Hello Walls
TTITLE5=To See An Angel Cry
TTITLE6=D-I-V-O-R-C-E
TTITLE7=Misery Loves Company
TTITLE8=Mama Tried
TTITLE9=All The Time
EXTD=
EXTT0=
EXTT1=
EXTT2=
EXTT3=
EXTT4=
EXTT5=
EXTT6=
EXTT7=
EXTT8=
EXTT9=
PLAYORDER=
